<svg width="27" height="28" viewBox="0 0 27 28" fill="none" xmlns="http://www.w3.org/2000/svg">
<g clip-path="url(#clip0_5_25)">
<path d="M8.09998 18.05H20.25C20.9925 18.05 21.6 18.6575 21.6 19.4C21.6 20.1425 20.9925 20.75 20.25 20.75H6.74998C6.00748 20.75 5.39998 20.1425 5.39998 19.4V5.9H2.69998C1.95748 5.9 1.34998 5.2925 1.34998 4.55C1.34998 3.8075 1.95748 3.2 2.69998 3.2H6.74998C7.49248 3.2 8.09998 3.8075 8.09998 4.55V7.25H25.65L20.25 16.7H8.09998V18.05ZM7.42498 22.1C8.54548 22.1 9.44998 23.0045 9.44998 24.125C9.44998 25.2455 8.54548 26.15 7.42498 26.15C6.30448 26.15 5.39998 25.2455 5.39998 24.125C5.39998 23.0045 6.30448 22.1 7.42498 22.1ZM19.575 22.1C20.6955 22.1 21.6 23.0045 21.6 24.125C21.6 25.2455 20.6955 26.15 19.575 26.15C18.4545 26.15 17.55 25.2455 17.55 24.125C17.55 23.0045 18.4545 22.1 19.575 22.1Z" fill="black"/>
</g>
<defs>
<clipPath id="clip0_5_25">
<rect width="27" height="27" fill="white" transform="translate(0 0.5)"/>
</clipPath>
</defs>
</svg>
