<svg width="97" height="129" viewBox="0 0 97 129" fill="none" xmlns="http://www.w3.org/2000/svg">
<path d="M92.9583 129C95.1893 129 97 127.198 97 124.969V25.8C97 25.7113 96.9555 25.6347 96.9475 25.546C96.9232 25.1832 96.8545 24.8325 96.7332 24.4898C96.6847 24.3528 96.6484 24.2238 96.5877 24.0948C96.4059 23.7078 96.1715 23.345 95.8643 23.0265C95.84 23.0023 95.8279 22.966 95.7996 22.9418C95.7956 22.9378 95.7915 22.9298 95.7875 22.9217L73.5583 1.15294C73.2229 0.826407 72.8308 0.588565 72.4186 0.395065C72.2933 0.338627 72.164 0.306377 72.0306 0.262033C71.687 0.145127 71.3354 0.0725628 70.9717 0.0483753C70.8908 0.0443441 70.8181 0 70.7292 0H4.04167C1.81067 0 0 1.80197 0 4.03125V124.969C0 127.198 1.81067 129 4.04167 129H92.9583ZM74.7708 13.6418L83.0724 21.7728H74.7708V13.6418ZM8.08333 8.0625H66.6875V25.8C66.6875 28.0293 68.4982 29.8313 70.7292 29.8313H88.9167V120.938H8.08333V8.0625Z" fill="black"/>
</svg>
