<svg width="23" height="23" viewBox="0 0 23 23" fill="none" xmlns="http://www.w3.org/2000/svg">
<g clip-path="url(#clip0_54_500)">
<g filter="url(#filter0_d_54_500)">
<path d="M12.4633 1.31103C12.3735 1.13256 12.2359 0.982553 12.0659 0.877734C11.8958 0.772914 11.7 0.717407 11.5002 0.717407C11.3004 0.717407 11.1046 0.772914 10.9345 0.877734C10.7644 0.982553 10.6268 1.13256 10.5371 1.31103L7.57007 7.19615L0.925945 8.14778C0.725597 8.17634 0.537334 8.26072 0.38269 8.39126C0.228046 8.5218 0.113266 8.69323 0.0514785 8.88594C-0.0103091 9.07865 -0.0166091 9.28487 0.033299 9.48099C0.0832071 9.67711 0.187308 9.85523 0.333695 9.99497L5.12776 14.5662L3.99788 21.0177C3.96333 21.2154 3.98464 21.4188 4.05939 21.605C4.13415 21.7912 4.25939 21.9529 4.42102 22.0718C4.58266 22.1907 4.77427 22.2621 4.9743 22.2781C5.17433 22.294 5.37484 22.2538 5.55326 22.162L11.5002 19.1001L17.4471 22.162C17.6256 22.2538 17.8261 22.294 18.0261 22.2781C18.2261 22.2621 18.4177 22.1907 18.5794 22.0718C18.741 21.9529 18.8662 21.7912 18.941 21.605C19.0158 21.4188 19.0371 21.2154 19.0025 21.0177L17.8726 14.5648L22.6667 9.99353C22.8127 9.85373 22.9164 9.67572 22.966 9.47981C23.0157 9.28389 23.0093 9.07797 22.9475 8.88552C22.8858 8.69308 22.7712 8.52187 22.6168 8.39142C22.4624 8.26098 22.2745 8.17655 22.0744 8.14778L15.4303 7.19615L12.4633 1.31103Z" fill="url(#paint0_linear_54_500)"/>
</g>
</g>
<defs>
<filter id="filter0_d_54_500" x="-5" y="-4.28259" width="32.999" height="31.5641" filterUnits="userSpaceOnUse" color-interpolation-filters="sRGB">
<feFlood flood-opacity="0" result="BackgroundImageFix"/>
<feColorMatrix in="SourceAlpha" type="matrix" values="0 0 0 0 0 0 0 0 0 0 0 0 0 0 0 0 0 0 127 0" result="hardAlpha"/>
<feOffset/>
<feGaussianBlur stdDeviation="2.5"/>
<feComposite in2="hardAlpha" operator="out"/>
<feColorMatrix type="matrix" values="0 0 0 0 0.9875 0 0 0 0 0.710506 0 0 0 0 0.172813 0 0 0 0.5 0"/>
<feBlend mode="normal" in2="BackgroundImageFix" result="effect1_dropShadow_54_500"/>
<feBlend mode="normal" in="SourceGraphic" in2="effect1_dropShadow_54_500" result="shape"/>
</filter>
<linearGradient id="paint0_linear_54_500" x1="11.4995" y1="0.717407" x2="11.4995" y2="22.2815" gradientUnits="userSpaceOnUse">
<stop stop-color="#FBC967"/>
<stop offset="1" stop-color="#FFE3AC"/>
</linearGradient>
<clipPath id="clip0_54_500">
<rect width="23" height="23" fill="white"/>
</clipPath>
</defs>
</svg>
