<svg width="30" height="30" viewBox="0 0 30 30" fill="none" xmlns="http://www.w3.org/2000/svg">
<g clip-path="url(#clip0_32_71)">
<path d="M4.05094 7.6225C4.83428 7.075 6.01511 7.18 6.71844 7.76084L5.91178 6.58834C5.26261 5.6625 5.49511 4.66084 6.42178 4.01084C7.34844 3.36334 9.97428 5.10417 9.97428 5.10417C9.31928 4.16917 9.44178 2.98417 10.3768 2.32833C10.8263 2.01424 11.3821 1.89143 11.9221 1.98691C12.4622 2.08238 12.9422 2.38831 13.2568 2.8375L21.9401 15.1042L20.8334 25.8333L11.5976 22.465L3.54178 10.5208C3.38469 10.2972 3.27324 10.0447 3.21381 9.77795C3.15438 9.51117 3.14813 9.23529 3.19542 8.9661C3.24271 8.6969 3.34262 8.43967 3.48942 8.20912C3.63621 7.97858 3.82703 7.77923 4.05094 7.6225Z" fill="white"/>
<path d="M2.24564 14.4467C2.24564 14.4467 1.30231 13.0717 2.67814 12.1292C4.05231 11.1867 4.99481 12.5608 4.99481 12.5608L9.37064 18.9425C9.52148 18.6908 9.68648 18.4425 9.87064 18.1975L3.79731 9.34166C3.79731 9.34166 2.85481 7.9675 4.22981 7.025C5.60398 6.0825 6.54648 7.45667 6.54648 7.45667L12.259 15.7875C12.4715 15.6142 12.689 15.44 12.9131 15.2692L6.29064 5.61C6.29064 5.61 5.34814 4.23583 6.72314 3.29333C8.09731 2.35083 9.03981 3.725 9.03981 3.725L15.6623 13.3825C15.9056 13.2333 16.1465 13.1042 16.3881 12.9675L10.1981 3.94083C10.1981 3.94083 9.25564 2.56667 10.6298 1.62417C12.004 0.681665 12.9465 2.05583 12.9465 2.05583L19.4915 11.6008L20.4865 13.0525C16.3631 15.8808 15.9706 21.2017 18.3265 24.6375C18.7973 25.325 19.4848 24.8542 19.4848 24.8542C16.6573 20.73 17.5206 16.0958 21.6448 13.2683L20.429 7.18333C20.429 7.18333 19.9748 5.58 21.5773 5.125C23.1806 4.67083 23.6356 6.27416 23.6356 6.27416L25.0398 10.4442C25.5965 12.0975 26.189 13.745 26.9731 15.3033C29.1873 19.7033 27.8648 25.1717 23.6898 28.0358C19.1356 31.1583 12.9098 29.9975 9.78648 25.4442L2.24564 14.4467Z" fill="black"/>
<path d="M10.0002 26.7017C6.66684 26.7017 3.2985 23.3333 3.2985 20C3.2985 19.5392 2.961 19.1667 2.50017 19.1667C2.03934 19.1667 1.63184 19.5392 1.63184 20C1.63184 25 5.00017 28.3683 10.0002 28.3683C10.461 28.3683 10.8335 27.9608 10.8335 27.5C10.8335 27.0392 10.461 26.7017 10.0002 26.7017Z" fill="black"/>
<path d="M5.83333 28.3333C3.33333 28.3333 1.66667 26.6667 1.66667 24.1667C1.66667 23.9457 1.57887 23.7337 1.42259 23.5774C1.26631 23.4211 1.05435 23.3333 0.833333 23.3333C0.61232 23.3333 0.400358 23.4211 0.244078 23.5774C0.0877974 23.7337 0 23.9457 0 24.1667C0 27.5 2.5 30 5.83333 30C6.05435 30 6.26631 29.9122 6.42259 29.7559C6.57887 29.5996 6.66667 29.3877 6.66667 29.1667C6.66667 28.9457 6.57887 28.7337 6.42259 28.5774C6.26631 28.4211 6.05435 28.3333 5.83333 28.3333ZM20 1.66667C19.779 1.66667 19.567 1.75447 19.4107 1.91075C19.2545 2.06703 19.1667 2.27899 19.1667 2.50001C19.1667 2.72102 19.2545 2.93298 19.4107 3.08926C19.567 3.24554 19.779 3.33334 20 3.33334C23.3333 3.33334 26.6667 6.32417 26.6667 10C26.6667 10.221 26.7545 10.433 26.9107 10.5893C27.067 10.7455 27.279 10.8333 27.5 10.8333C27.721 10.8333 27.933 10.7455 28.0893 10.5893C28.2455 10.433 28.3333 10.221 28.3333 10C28.3333 5.405 25 1.66667 20 1.66667Z" fill="black"/>
<path d="M24.1668 0.0350037C23.7068 0.0350037 23.3335 0.373337 23.3335 0.833337C23.3335 1.29334 23.7068 1.70167 24.1668 1.70167C26.6668 1.70167 28.2985 3.55584 28.2985 5.83334C28.2985 6.29334 28.706 6.66667 29.1668 6.66667C29.6277 6.66667 29.9652 6.29334 29.9652 5.83334C29.9652 2.63584 27.5002 0.0350037 24.1668 0.0350037Z" fill="black"/>
</g>
<defs>
<clipPath id="clip0_32_71">
<rect width="30" height="30" fill="white"/>
</clipPath>
</defs>
</svg>
