<svg width="157" height="33" viewBox="0 0 157 33" fill="none" xmlns="http://www.w3.org/2000/svg">
<path d="M14.8125 11C15.9453 11.2422 16.9648 11.5938 17.8711 12.0547C18.7773 12.5078 19.5469 13.0898 20.1797 13.8008C20.8203 14.5117 21.3086 15.3633 21.6445 16.3555C21.9883 17.3398 22.1602 18.4844 22.1602 19.7891C22.1602 21.5156 21.8711 22.9688 21.293 24.1484C20.7148 25.3203 19.8984 26.2656 18.8438 26.9844C17.7969 27.7031 16.5352 28.2188 15.0586 28.5312C13.582 28.8438 11.9492 29 10.1602 29H1.16016V23.9141L2.66016 23.6211V15.9453L1.16016 15.6523V11H14.8125ZM11.3086 23.6211C12.1445 23.6211 12.7891 23.5312 13.2422 23.3516C13.6953 23.1641 14.0234 22.9023 14.2266 22.5664C14.4375 22.2305 14.5586 21.8281 14.5898 21.3594C14.6289 20.8906 14.6484 20.3672 14.6484 19.7891C14.6484 19.2109 14.6289 18.6875 14.5898 18.2188C14.5586 17.7422 14.4375 17.3359 14.2266 17C14.0234 16.6641 13.6953 16.4062 13.2422 16.2266C12.7891 16.0391 12.1445 15.9453 11.3086 15.9453H10.1602V23.6211H11.3086ZM23.9766 11H34.4766V16.0859L32.9766 16.3789V23.6211L34.4766 23.9141V29H23.9766V23.9141L25.4766 23.6211V16.3789L23.9766 16.0859V11ZM52.2891 23.3516C52.2812 24.125 52.168 24.8125 51.9492 25.4141C51.7383 26.0078 51.4414 26.5234 51.0586 26.9609C50.6758 27.3906 50.2266 27.7578 49.7109 28.0625C49.1953 28.3594 48.6406 28.6016 48.0469 28.7891C47.4531 28.9688 46.8281 29.082 46.1719 29.1289C45.5234 29.1836 44.8711 29.2109 44.2148 29.2109C43.0273 29.2109 41.9844 29.1641 41.0859 29.0703C40.5703 29.0078 39.8008 28.8359 38.7773 28.5547C37.9414 28.3281 37.2852 28.0898 36.8086 27.8398V23.2109H40.3359C40.7422 23.7734 41.1992 24.1875 41.707 24.4531C42.2227 24.7188 42.75 24.8516 43.2891 24.8516C43.4297 24.8516 43.5859 24.8398 43.7578 24.8164C43.9297 24.793 44.0898 24.7266 44.2383 24.6172C44.3945 24.5078 44.5234 24.3359 44.625 24.1016C44.7344 23.8672 44.7891 23.5391 44.7891 23.1172C44.1172 23.0547 43.4492 22.9648 42.7852 22.8477C42.1289 22.7305 41.5 22.5703 40.8984 22.3672C40.2969 22.1641 39.7344 21.9102 39.2109 21.6055C38.6953 21.293 38.2461 20.918 37.8633 20.4805C37.4883 20.043 37.1914 19.5312 36.9727 18.9453C36.7617 18.3516 36.6562 17.668 36.6562 16.8945C36.6562 16.0664 36.7656 15.3398 36.9844 14.7148C37.2031 14.082 37.5 13.5391 37.875 13.0859C38.2578 12.625 38.7031 12.2461 39.2109 11.9492C39.7266 11.6445 40.2773 11.4023 40.8633 11.2227C41.457 11.043 42.0703 10.9297 42.7031 10.8828C43.3438 10.8359 43.9805 10.8125 44.6133 10.8125C45.5352 10.8125 46.3633 10.8477 47.0977 10.918C47.8398 10.9805 48.5078 11.082 49.1016 11.2227C49.6953 11.3633 50.2188 11.5234 50.6719 11.7031C51.1328 11.875 51.543 12.043 51.9023 12.207V16.7773H48.375C47.9766 16.2148 47.5312 15.8008 47.0391 15.5352C46.5547 15.2695 46.0547 15.1367 45.5391 15.1367C45.3984 15.1367 45.2383 15.1562 45.0586 15.1953C44.8789 15.2266 44.7109 15.3086 44.5547 15.4414C44.3984 15.5664 44.2656 15.7539 44.1562 16.0039C44.0469 16.2461 43.9922 16.5781 43.9922 17C45.3594 17.0469 46.5625 17.1953 47.6016 17.4453C48.6406 17.6953 49.5039 18.0742 50.1914 18.582C50.8867 19.082 51.4102 19.7266 51.7617 20.5156C52.1133 21.2969 52.2891 22.2422 52.2891 23.3516ZM64.4414 29.2109C63.4883 29.2109 62.5664 29.1523 61.6758 29.0352C60.793 28.918 59.9609 28.6992 59.1797 28.3789C58.4062 28.0586 57.6992 27.6484 57.0586 27.1484C56.418 26.6406 55.8672 26.0352 55.4062 25.332C54.9453 24.6211 54.5859 23.8086 54.3281 22.8945C54.0781 21.9727 53.9531 20.9375 53.9531 19.7891C53.9531 18.7109 54.0781 17.7383 54.3281 16.8711C54.5781 16.0039 54.9297 15.2344 55.3828 14.5625C55.8359 13.8906 56.3789 13.3125 57.0117 12.8281C57.6523 12.3438 58.3594 11.9492 59.1328 11.6445C59.9141 11.332 60.75 11.1016 61.6406 10.9531C62.5391 10.8047 63.4727 10.7305 64.4414 10.7305C65.4102 10.7305 66.3438 10.8047 67.2422 10.9531C68.1406 11.1016 68.9805 11.332 69.7617 11.6445C70.543 11.957 71.25 12.3555 71.8828 12.8398C72.5234 13.3242 73.0703 13.9023 73.5234 14.5742C73.9766 15.2461 74.3281 16.0156 74.5781 16.8828C74.8281 17.7422 74.9531 18.7109 74.9531 19.7891C74.9531 21.4766 74.6758 22.9258 74.1211 24.1367C73.5742 25.3398 72.8242 26.3242 71.8711 27.0898C70.918 27.8555 69.8047 28.4023 68.5312 28.7305C67.2578 29.0508 65.8945 29.2109 64.4414 29.2109ZM64.4414 16.0859C63.9414 16.0859 63.5195 16.1523 63.1758 16.2852C62.8398 16.4102 62.5586 16.5781 62.332 16.7891C62.1133 17 61.9453 17.2383 61.8281 17.5039C61.7109 17.7695 61.6211 18.0391 61.5586 18.3125C61.5039 18.5859 61.4727 18.8516 61.4648 19.1094C61.457 19.3672 61.4531 19.5938 61.4531 19.7891C61.4531 19.9844 61.457 20.2109 61.4648 20.4688C61.4727 20.7266 61.5039 20.9961 61.5586 21.2773C61.6211 21.5508 61.7109 21.8242 61.8281 22.0977C61.9453 22.3711 62.1133 22.6172 62.332 22.8359C62.5586 23.0469 62.8398 23.2188 63.1758 23.3516C63.5195 23.4844 63.9414 23.5508 64.4414 23.5508C64.9414 23.5508 65.3594 23.4844 65.6953 23.3516C66.0391 23.2188 66.3242 23.0469 66.5508 22.8359C66.7773 22.6172 66.9492 22.3711 67.0664 22.0977C67.1914 21.8242 67.2812 21.5508 67.3359 21.2773C67.3906 20.9961 67.4219 20.7266 67.4297 20.4688C67.4453 20.2109 67.4531 19.9844 67.4531 19.7891C67.4531 19.5938 67.4453 19.3672 67.4297 19.1094C67.4219 18.8516 67.3906 18.5859 67.3359 18.3125C67.2812 18.0391 67.1914 17.7695 67.0664 17.5039C66.9492 17.2383 66.7773 17 66.5508 16.7891C66.3242 16.5781 66.0391 16.4102 65.6953 16.2852C65.3594 16.1523 64.9414 16.0859 64.4414 16.0859ZM96.0703 16.3789C96.0625 16.6289 96.0586 16.875 96.0586 17.1172C96.0586 17.3516 96.0586 17.582 96.0586 17.8086V19.7891C96.0586 21.4453 95.832 22.875 95.3789 24.0781C94.9336 25.2734 94.3203 26.2617 93.5391 27.043C92.7656 27.8164 91.8594 28.3711 90.8203 28.707C89.7812 29.043 88.6758 29.2109 87.5039 29.2109C86.5898 29.2109 85.7109 29.1484 84.8672 29.0234C84.0312 28.9062 83.25 28.6836 82.5234 28.3555C81.7969 28.0195 81.1367 27.5977 80.543 27.0898C79.9492 26.5742 79.4375 25.9648 79.0078 25.2617C78.5859 24.5508 78.2578 23.7422 78.0234 22.8359C77.7969 21.9297 77.6836 20.9141 77.6836 19.7891V16.3789L76.1836 16.0859V11H85.9219V16.0859L84.4219 16.3789V17.8906C84.4219 18.0859 84.4219 18.2852 84.4219 18.4883C84.4219 18.6836 84.4219 18.8672 84.4219 19.0391C84.4297 19.2109 84.4336 19.3633 84.4336 19.4961C84.4336 19.6289 84.4336 19.7266 84.4336 19.7891C84.4336 19.9844 84.4375 20.2109 84.4453 20.4688C84.4531 20.7266 84.4844 20.9961 84.5391 21.2773C84.6016 21.5508 84.6914 21.8242 84.8086 22.0977C84.9258 22.3711 85.0938 22.6172 85.3125 22.8359C85.5391 23.0469 85.8203 23.2188 86.1562 23.3516C86.5 23.4844 86.9219 23.5508 87.4219 23.5508C87.9219 23.5508 88.3398 23.4844 88.6758 23.3516C89.0195 23.2188 89.3047 23.0469 89.5312 22.8359C89.7578 22.6172 89.9297 22.3711 90.0469 22.0977C90.1719 21.8242 90.2617 21.5508 90.3164 21.2773C90.3711 20.9961 90.4023 20.7266 90.4102 20.4688C90.4258 20.2109 90.4336 19.9844 90.4336 19.7891C90.4336 19.7266 90.4336 19.6289 90.4336 19.4961C90.4336 19.3633 90.4297 19.2109 90.4219 19.0391C90.4219 18.8672 90.4219 18.6836 90.4219 18.4883C90.4219 18.2852 90.4219 18.0859 90.4219 17.8906V16.3789L88.9219 16.0859V11H97.5703V16.0859L96.0703 16.3789ZM119.004 29H111.551C111.316 28.5547 111.074 28.082 110.824 27.582C110.574 27.082 110.332 26.5625 110.098 26.0234C109.863 25.4844 109.645 24.9258 109.441 24.3477C109.238 23.7695 109.066 23.1758 108.926 22.5664H108.516V29H99.5156V23.9141L101.016 23.6211V16.3789L99.5156 16.0859V11H109.723C111.074 11 112.242 11.0625 113.227 11.1875C114.211 11.3125 115.047 11.4922 115.734 11.7266C116.422 11.9531 116.977 12.2344 117.398 12.5703C117.828 12.8984 118.16 13.2734 118.395 13.6953C118.637 14.1094 118.797 14.5664 118.875 15.0664C118.961 15.5586 119.004 16.082 119.004 16.6367C119.004 17.1992 118.949 17.7109 118.84 18.1719C118.738 18.625 118.555 19.043 118.289 19.4258C118.023 19.8086 117.66 20.1602 117.199 20.4805C116.738 20.793 116.152 21.0898 115.441 21.3711C115.59 21.6836 115.812 22.0508 116.109 22.4727C116.406 22.8867 116.727 23.3125 117.07 23.75C117.414 24.1797 117.758 24.6016 118.102 25.0156C118.453 25.4219 118.754 25.7695 119.004 26.0586V29ZM108.516 19.1094C108.969 19.1094 109.379 19.0898 109.746 19.0508C110.121 19.0117 110.438 18.9219 110.695 18.7812C110.961 18.6406 111.164 18.4336 111.305 18.1602C111.445 17.8867 111.516 17.5195 111.516 17.0586C111.516 16.6055 111.445 16.2461 111.305 15.9805C111.164 15.707 110.961 15.4961 110.695 15.3477C110.438 15.1992 110.121 15.1016 109.746 15.0547C109.379 15.0078 108.969 14.9844 108.516 14.9844V19.1094ZM128.156 19.7891C128.156 20.4609 128.242 21.0391 128.414 21.5234C128.586 22.0078 128.836 22.4062 129.164 22.7188C129.5 23.0312 129.906 23.2617 130.383 23.4102C130.867 23.5586 131.418 23.6328 132.035 23.6328C132.77 23.6328 133.637 23.543 134.637 23.3633C135.637 23.1836 136.742 22.9062 137.953 22.5312V28.0156C136.695 28.4375 135.469 28.7422 134.273 28.9297C133.086 29.1172 131.914 29.2109 130.758 29.2109C129.344 29.2109 128.02 29.0352 126.785 28.6836C125.559 28.332 124.488 27.7656 123.574 26.9844C122.668 26.1953 121.953 25.2031 121.43 24.0078C120.906 22.8125 120.645 21.4062 120.645 19.7891C120.645 18.2109 120.883 16.8516 121.359 15.7109C121.844 14.5703 122.523 13.6328 123.398 12.8984C124.281 12.1562 125.336 11.6094 126.562 11.2578C127.797 10.9062 129.164 10.7305 130.664 10.7305C131.586 10.7305 132.414 10.7773 133.148 10.8711C133.891 10.9648 134.559 11.082 135.152 11.2227C135.746 11.3633 136.27 11.5234 136.723 11.7031C137.184 11.875 137.594 12.043 137.953 12.207V17.5977H134.426C134.027 17.0352 133.582 16.6211 133.09 16.3555C132.605 16.0898 132.105 15.957 131.59 15.957C131.152 15.957 130.727 16.043 130.312 16.2148C129.906 16.3867 129.543 16.6367 129.223 16.9648C128.902 17.293 128.645 17.6953 128.449 18.1719C128.254 18.6406 128.156 19.1797 128.156 19.7891ZM149.25 24.5C149.781 24.5 150.281 24.457 150.75 24.3711C151.219 24.2773 151.648 24.1602 152.039 24.0195C152.438 23.8789 152.797 23.7188 153.117 23.5391C153.438 23.3594 153.719 23.1797 153.961 23H155.918V29H140.25V23.9141L141.75 23.6211V16.4023L140.25 16.1094V11H155.918V17H154.031C153.781 16.8281 153.492 16.6523 153.164 16.4727C152.836 16.293 152.469 16.1328 152.062 15.9922C151.664 15.8438 151.23 15.7266 150.762 15.6406C150.293 15.5469 149.789 15.5 149.25 15.5V18.6992L152.766 17.9375V22.0859L149.25 21.3242V24.5Z" fill="black"/>
<line x1="49.1374" y1="1.5" x2="-1.52588e-05" y2="1.5" stroke="black" stroke-width="3"/>
<line x1="78" y1="1.5" x2="52" y2="1.5" stroke="black" stroke-width="3"/>
</svg>
