<svg width="26" height="24" viewBox="0 0 26 24" fill="none" xmlns="http://www.w3.org/2000/svg">
<path d="M22.3333 1.21094H3.66667C2.95942 1.21094 2.28115 1.49189 1.78105 1.99199C1.28095 2.49208 1 3.17036 1 3.8776V14.5443C1 15.2515 1.28095 15.9298 1.78105 16.4299C2.28115 16.93 2.95942 17.2109 3.66667 17.2109H22.3333C23.0406 17.2109 23.7189 16.93 24.219 16.4299C24.719 15.9298 25 15.2515 25 14.5443V3.8776C25 3.17036 24.719 2.49208 24.219 1.99199C23.7189 1.49189 23.0406 1.21094 22.3333 1.21094Z" fill="black"/>
<path d="M13 17.2109V22.5443M13 22.5443H18.3333M13 22.5443H7.66667M13 17.2109H22.3333C23.0406 17.2109 23.7189 16.93 24.219 16.4299C24.719 15.9298 25 15.2515 25 14.5443V3.8776C25 3.17036 24.719 2.49208 24.219 1.99199C23.7189 1.49189 23.0406 1.21094 22.3333 1.21094H3.66667C2.95942 1.21094 2.28115 1.49189 1.78105 1.99199C1.28095 2.49208 1 3.17036 1 3.8776V14.5443C1 15.2515 1.28095 15.9298 1.78105 16.4299C2.28115 16.93 2.95942 17.2109 3.66667 17.2109H13Z" stroke="black" stroke-linecap="round" stroke-linejoin="round"/>
</svg>
