<svg width="486" height="486" viewBox="0 0 486 486" fill="none" xmlns="http://www.w3.org/2000/svg">
<path d="M129.109 109.887C118.416 109.887 109.679 118.624 109.679 129.316V258.41C109.679 269.102 118.416 277.839 129.109 277.839H356.921C367.613 277.839 376.35 269.102 376.35 258.41V129.316C376.35 118.624 367.613 109.887 356.921 109.887H129.109ZM129.109 118.371H356.921C363.057 118.371 367.867 123.181 367.867 129.316V258.41C367.867 264.546 363.057 269.356 356.921 269.356H129.109C122.973 269.356 118.163 264.546 118.163 258.41V129.316C118.163 123.181 122.973 118.371 129.109 118.371Z" fill="#1C1C1C"/>
<path d="M119.839 269.801L118.697 271.046C118.697 271.046 99.6812 291.971 82.508 312.96C73.9214 323.455 65.8055 333.938 60.6463 342.045C58.0667 346.099 56.1998 349.435 55.3514 352.546C54.9273 354.101 54.5755 355.766 55.4849 357.766C56.3943 359.767 58.9456 360.926 60.7649 360.926H425.265C426.372 360.926 428.23 360.152 429.017 358.82C429.805 357.487 429.699 356.429 429.596 355.675C429.39 354.168 428.885 353.155 428.231 351.849C426.925 349.235 424.82 345.922 422.106 341.941C416.678 333.98 408.824 323.519 400.734 313.049C384.553 292.11 367.452 271.195 367.452 271.195L366.31 269.801H119.839ZM123.235 277.394H362.691C363.776 278.722 379.173 297.563 394.727 317.692C402.773 328.105 410.581 338.511 415.832 346.213C417.902 349.248 419.155 351.392 420.252 353.332H63.3011C63.9238 351.679 64.9929 349.362 67.0535 346.124C71.861 338.569 79.8819 328.154 88.3813 317.766C104.87 297.613 122.151 278.59 123.235 277.394Z" fill="#1C1C1C"/>
<path d="M182.265 338.144V345.738H303.765V338.144H182.265Z" fill="#1C1C1C"/>
<path d="M129.109 292.582V300.176H144.296V292.582H129.109Z" fill="#1C1C1C"/>
<path d="M159.484 292.582V300.176H174.671V292.582H159.484Z" fill="#1C1C1C"/>
<path d="M189.859 292.582V300.176H205.046V292.582H189.859Z" fill="#1C1C1C"/>
<path d="M220.234 292.582V300.176H235.421V292.582H220.234Z" fill="#1C1C1C"/>
<path d="M250.609 292.582V300.176H265.796V292.582H250.609Z" fill="#1C1C1C"/>
<path d="M280.984 292.582V300.176H296.171V292.582H280.984Z" fill="#1C1C1C"/>
<path d="M311.359 292.582V300.176H326.546V292.582H311.359Z" fill="#1C1C1C"/>
<path d="M341.734 292.582V300.176H356.921V292.582H341.734Z" fill="#1C1C1C"/>
<path d="M129.109 307.769V315.363H144.296V307.769H129.109Z" fill="#1C1C1C"/>
<path d="M159.484 307.769V315.363H174.671V307.769H159.484Z" fill="#1C1C1C"/>
<path d="M189.859 307.769V315.363H205.046V307.769H189.859Z" fill="#1C1C1C"/>
<path d="M220.234 307.769V315.363H235.421V307.769H220.234Z" fill="#1C1C1C"/>
<path d="M250.609 307.769V315.363H265.796V307.769H250.609Z" fill="#1C1C1C"/>
<path d="M280.984 307.769V315.363H296.171V307.769H280.984Z" fill="#1C1C1C"/>
<path d="M311.359 307.769V315.363H326.546V307.769H311.359Z" fill="#1C1C1C"/>
<path d="M341.734 307.769V315.363H356.921V307.769H341.734Z" fill="#1C1C1C"/>
<path d="M129.109 322.957V330.551H144.296V322.957H129.109Z" fill="#1C1C1C"/>
<path d="M159.484 322.957V330.551H174.671V322.957H159.484Z" fill="#1C1C1C"/>
<path d="M189.859 322.957V330.551H205.046V322.957H189.859Z" fill="#1C1C1C"/>
<path d="M220.234 322.957V330.551H235.421V322.957H220.234Z" fill="#1C1C1C"/>
<path d="M250.609 322.957V330.551H265.796V322.957H250.609Z" fill="#1C1C1C"/>
<path d="M280.984 322.957V330.551H296.171V322.957H280.984Z" fill="#1C1C1C"/>
<path d="M311.359 322.957V330.551H326.546V322.957H311.359Z" fill="#1C1C1C"/>
<path d="M341.734 322.957V330.551H356.921V322.957H341.734Z" fill="#1C1C1C"/>
<path d="M144.296 125.519C133.844 125.519 125.312 134.052 125.312 144.504V243.222C125.312 253.674 133.844 262.207 144.296 262.207H341.734C352.185 262.207 360.718 253.674 360.718 243.222V144.504C360.718 134.052 352.185 125.519 341.734 125.519H144.296ZM144.296 133.113H341.734C348.11 133.113 353.124 138.128 353.124 144.504V243.222C353.124 249.599 348.11 254.613 341.734 254.613H144.296C137.92 254.613 132.906 249.599 132.906 243.222V144.504C132.906 138.128 137.92 133.113 144.296 133.113Z" fill="#1C1C1C"/>
<path d="M60.7649 353.332C59.4993 353.332 58.3118 353.459 57.0867 353.984C55.8616 354.509 54.6172 355.638 54.061 356.936C52.9487 359.532 53.7585 361.412 54.3132 363.076C55.4225 366.404 56.968 369.785 56.968 372.316V376.113H429.062V372.316C429.062 372 429.355 370.629 429.907 369.083C430.459 367.537 431.192 365.771 431.746 363.922C432.301 362.073 432.939 360.089 432.058 357.544C431.617 356.272 430.572 354.963 429.284 354.251C427.996 353.54 426.636 353.332 425.265 353.332V360.496C425.113 360.318 424.924 360.166 424.879 360.036C424.71 359.547 424.873 360.426 424.479 361.741C424.084 363.056 423.393 364.756 422.758 366.532C422.54 367.142 422.509 367.888 422.314 368.519H63.5681C62.8441 365.553 62.0531 362.269 61.5213 360.673C61.1267 359.49 61.4472 358.997 61.0467 359.932C60.9885 360.068 60.8689 360.1 60.7649 360.228V353.332Z" fill="#1C1C1C"/>
<path d="M205.046 360.926V368.519H273.39V360.926H205.046Z" fill="#1C1C1C"/>
<path d="M136.622 209.052V231.804C136.622 242.255 145.184 250.818 155.636 250.818H178.402V243.254H155.636C149.26 243.254 144.245 238.18 144.245 231.804V209.052H136.622Z" fill="#1C1C1C"/>
<path d="M349.39 178.832V156.08C349.39 145.628 340.828 137.066 330.376 137.066H307.61V144.63H330.376C336.752 144.63 341.767 149.704 341.767 156.08V178.832H349.39Z" fill="#1C1C1C"/>
<path d="M272.906 221.146C315.731 221.146 350.448 186.429 350.448 143.604C350.448 100.779 315.731 66.0623 272.906 66.0623C230.08 66.0623 195.364 100.779 195.364 143.604C195.364 186.429 230.08 221.146 272.906 221.146Z" stroke="#1C1C1C" stroke-width="10"/>
<path d="M325.471 200.583L396.416 277.525" stroke="#1C1C1C" stroke-width="10"/>
<path d="M247.685 163.124H252.509V159.416C252.509 158.672 252.533 157.82 252.581 156.86C252.653 155.876 252.701 155.024 252.725 154.304H252.581C252.293 154.928 251.993 155.564 251.681 156.212C251.369 156.86 251.045 157.508 250.709 158.156L247.685 163.124ZM252.509 172.628V167.156H242.609V163.52L250.961 149.768H257.441V163.124H260.069V167.156H257.441V172.628H252.509ZM270.448 173.06C268 173.06 266.02 172.04 264.508 170C263.02 167.96 262.276 164.996 262.276 161.108C262.276 157.22 263.02 154.292 264.508 152.324C266.02 150.332 268 149.336 270.448 149.336C272.896 149.336 274.864 150.332 276.352 152.324C277.864 154.292 278.62 157.22 278.62 161.108C278.62 164.996 277.864 167.96 276.352 170C274.864 172.04 272.896 173.06 270.448 173.06ZM270.448 168.956C271.048 168.956 271.588 168.74 272.068 168.308C272.548 167.852 272.92 167.06 273.184 165.932C273.472 164.804 273.616 163.196 273.616 161.108C273.616 159.02 273.472 157.424 273.184 156.32C272.92 155.216 272.548 154.46 272.068 154.052C271.588 153.644 271.048 153.44 270.448 153.44C269.872 153.44 269.344 153.644 268.864 154.052C268.384 154.46 268 155.216 267.712 156.32C267.424 157.424 267.28 159.02 267.28 161.108C267.28 163.196 267.424 164.804 267.712 165.932C268 167.06 268.384 167.852 268.864 168.308C269.344 168.74 269.872 168.956 270.448 168.956ZM285.724 163.124H290.548V159.416C290.548 158.672 290.572 157.82 290.62 156.86C290.692 155.876 290.74 155.024 290.764 154.304H290.62C290.332 154.928 290.032 155.564 289.72 156.212C289.408 156.86 289.084 157.508 288.748 158.156L285.724 163.124ZM290.548 172.628V167.156H280.648V163.52L289 149.768H295.48V163.124H298.108V167.156H295.48V172.628H290.548Z" fill="#1C1C1C"/>
</svg>
