<svg width="36" height="36" viewBox="0 0 36 36" fill="none" xmlns="http://www.w3.org/2000/svg">
<path d="M11.6718 24.2754C16.0262 28.6297 21.3298 31.9896 25.654 31.9896C27.5977 31.9896 29.3002 31.3116 30.6713 29.805C31.4697 28.916 31.9671 27.8764 31.9671 26.8518C31.9671 26.0985 31.6808 25.3753 30.9576 24.863L26.347 21.5784C25.6389 21.0962 25.0513 20.8552 24.5089 20.8552C23.8158 20.8552 23.2131 21.2469 22.5201 21.9249L21.4503 22.9796C21.2845 23.1453 21.0736 23.2207 20.8777 23.2207C20.6367 23.2207 20.4258 23.1303 20.26 23.055C19.3409 22.5577 17.7438 21.1867 16.2522 19.7101C14.7756 18.2335 13.4045 16.6364 12.9224 15.7023C12.832 15.5365 12.7567 15.3256 12.7567 15.0996C12.7567 14.9037 12.817 14.7078 12.9827 14.5421L14.0374 13.4422C14.7154 12.7491 15.1071 12.1464 15.1071 11.4534C15.1071 10.911 14.8661 10.3234 14.3688 9.61526L11.1294 5.04994C10.6021 4.32673 9.86381 4.01031 9.05021 4.01031C8.05577 4.01031 7.01614 4.46231 6.14224 5.32116C4.68077 6.7224 4.0329 8.45509 4.0329 10.3686C4.0329 14.6928 7.33256 19.9361 11.6718 24.2754Z" fill="black"/>
</svg>
